<svg width="24" height="25" viewBox="0 0 24 25" fill="none" xmlns="http://www.w3.org/2000/svg">
<path d="M12 23.25C6.07 23.25 1.25 18.43 1.25 12.5C1.25 6.57 6.07 1.75 12 1.75C17.93 1.75 22.75 6.57 22.75 12.5C22.75 18.43 17.93 23.25 12 23.25ZM12 3.25C6.9 3.25 2.75 7.4 2.75 12.5C2.75 17.6 6.9 21.75 12 21.75C17.1 21.75 21.25 17.6 21.25 12.5C21.25 7.4 17.1 3.25 12 3.25Z" fill="#141414"/>
<path d="M9.00023 22.25H8.00023C7.59023 22.25 7.25023 21.91 7.25023 21.5C7.25023 21.09 7.57023 20.76 7.98023 20.75C6.41023 15.39 6.41023 9.61 7.98023 4.25C7.57023 4.24 7.25023 3.91 7.25023 3.5C7.25023 3.09 7.59023 2.75 8.00023 2.75H9.00023C9.24023 2.75 9.47023 2.87 9.61023 3.06C9.75023 3.26 9.79023 3.51 9.71023 3.74C7.83023 9.39 7.83023 15.61 9.71023 21.27C9.79023 21.5 9.75023 21.75 9.61023 21.95C9.47023 22.13 9.24023 22.25 9.00023 22.25Z" fill="#141414"/>
<path d="M14.9999 22.2499C14.9199 22.2499 14.8399 22.2399 14.7599 22.2099C14.3699 22.0799 14.1499 21.6499 14.2899 21.2599C16.1699 15.6099 16.1699 9.38994 14.2899 3.72994C14.1599 3.33994 14.3699 2.90994 14.7599 2.77994C15.1599 2.64994 15.5799 2.85994 15.7099 3.24994C17.6999 9.20994 17.6999 15.7699 15.7099 21.7199C15.6099 22.0499 15.3099 22.2499 14.9999 22.2499Z" fill="#141414"/>
<path d="M12 17.7C9.21 17.7 6.43 17.31 3.75 16.52C3.74 16.92 3.41 17.25 3 17.25C2.59 17.25 2.25 16.91 2.25 16.5V15.5C2.25 15.26 2.37 15.03 2.56 14.89C2.76 14.75 3.01 14.71 3.24 14.79C8.89 16.67 15.12 16.67 20.77 14.79C21 14.71 21.25 14.75 21.45 14.89C21.65 15.03 21.76 15.26 21.76 15.5V16.5C21.76 16.91 21.42 17.25 21.01 17.25C20.6 17.25 20.27 16.93 20.26 16.52C17.57 17.31 14.79 17.7 12 17.7Z" fill="#141414"/>
<path d="M20.9998 10.2501C20.9198 10.2501 20.8398 10.2401 20.7598 10.2101C15.1098 8.33011 8.87978 8.33011 3.22978 10.2101C2.82978 10.3401 2.40978 10.1301 2.27978 9.74011C2.15978 9.34011 2.36978 8.92011 2.75978 8.79011C8.71978 6.80011 15.2798 6.80011 21.2298 8.79011C21.6198 8.92011 21.8398 9.35011 21.6998 9.74011C21.6098 10.0501 21.3098 10.2501 20.9998 10.2501Z" fill="#141414"/>
</svg>
