<svg data-v-7ba3f65d="" width="32" height="32" viewBox="0 0 32 32" fill="none" xmlns="http://www.w3.org/2000/svg" class="icon"><path d="M20.737 23.6539C19.3612 24.5071 17.7382 24.9998 16.0002 24.9998C11.0297 24.9998 7.00024 20.9704 7.00024 15.9998C7.00024 11.0292 11.0297 6.99976 16.0002 6.99976C20.9708 6.99976 25.0002 11.0292 25.0002 15.9998C25.0002 17.926 24.043 19.9152 21.8103 19.7123C19.9735 19.5453 18.6514 17.8735 18.9123 16.0477L19.4276 12.4998M18.8583 16.4673C18.5592 18.5958 16.8068 20.1091 14.9444 19.8474C13.082 19.5856 11.8147 17.6479 12.1138 15.5194C12.413 13.3908 14.1652 11.8775 16.0277 12.1393C17.8901 12.401 19.1575 14.3388 18.8583 16.4673Z" stroke="black" stroke-width="2" stroke-linecap="round"></path></svg>