<svg width="24" height="24" viewBox="0 0 24 24" fill="none" xmlns="http://www.w3.org/2000/svg">
<path d="M12 22.75C6.07 22.75 1.25 17.93 1.25 12C1.25 6.07 6.07 1.25 12 1.25C17.93 1.25 22.75 6.07 22.75 12C22.75 17.93 17.93 22.75 12 22.75ZM12 2.75C6.9 2.75 2.75 6.9 2.75 12C2.75 17.1 6.9 21.25 12 21.25C17.1 21.25 21.25 17.1 21.25 12C21.25 6.9 17.1 2.75 12 2.75Z" fill="#141414"/>
<path d="M10.872 13.969C10.7507 13.451 10.704 13.0287 10.732 12.702C10.7647 12.3707 10.8743 12.0907 11.061 11.862C11.2477 11.6333 11.516 11.407 11.866 11.183C12.3467 10.875 12.6663 10.6137 12.825 10.399C12.9837 10.1843 13.063 9.94633 13.063 9.685C13.063 9.26967 12.916 8.95933 12.622 8.754C12.328 8.544 11.915 8.439 11.383 8.439C11.0003 8.439 10.655 8.49267 10.347 8.6C10.039 8.70733 9.75668 8.85667 9.50002 9.048L9.09402 7.767C9.24802 7.63167 9.45335 7.50567 9.71002 7.389C9.96668 7.26767 10.263 7.172 10.599 7.102C10.935 7.02733 11.2967 6.99 11.684 6.99C12.2813 6.99 12.8157 7.088 13.287 7.284C13.7583 7.47533 14.1293 7.753 14.4 8.117C14.6753 8.47633 14.813 8.90567 14.813 9.405C14.813 9.68967 14.7617 9.958 14.659 10.21C14.561 10.4573 14.3907 10.7047 14.148 10.952C13.9053 11.1993 13.574 11.463 13.154 11.743C12.8553 11.939 12.636 12.128 12.496 12.31C12.356 12.4873 12.2767 12.7043 12.258 12.961C12.2393 13.213 12.2627 13.549 12.328 13.969H10.872ZM11.663 17.21C11.3643 17.21 11.1077 17.1143 10.893 16.923C10.6783 16.7317 10.571 16.482 10.571 16.174C10.571 15.964 10.62 15.782 10.718 15.628C10.816 15.4693 10.9467 15.348 11.11 15.264C11.278 15.1753 11.4623 15.131 11.663 15.131C11.9663 15.131 12.2253 15.2267 12.44 15.418C12.6547 15.6047 12.762 15.8567 12.762 16.174C12.762 16.3793 12.7107 16.5613 12.608 16.72C12.51 16.874 12.377 16.993 12.209 17.077C12.0457 17.1657 11.8637 17.21 11.663 17.21Z" fill="#141414"/>
</svg>
