<svg width="40" height="40" viewBox="0 0 40 40" fill="none" xmlns="http://www.w3.org/2000/svg">
<path fill-rule="evenodd" clip-rule="evenodd" d="M10.1088 26.9452L14.6796 26.9358C15.2947 27.8081 15.6567 28.1557 16.7408 28.7106C18.913 29.8226 22.4609 29.8061 24.218 27.9503C24.6865 27.4556 24.964 26.9736 25.153 26.9338L29.7467 26.9349C29.5693 27.8791 28.9292 29.0331 28.4685 29.6399C27.7871 30.5368 27.3093 30.9363 26.3507 31.6027C24.7302 32.7294 22.3473 33.3754 19.9266 33.3312C15.7183 33.2545 11.2379 31.1699 10.1085 26.9452H10.1088ZM29.308 15.5556C29.4816 15.8971 29.5179 23.6886 29.3583 24.3979C28.6745 24.553 19.4035 24.4727 19.1551 24.3385C17.5068 24.415 15.4515 23.4802 14.3187 22.7831C9.9429 20.0903 8.89185 14.0091 13.4611 10.1298C15.8845 8.07221 19.8477 7.16256 23.5161 8.48852C25.0306 9.03597 26.6549 10.1372 27.3599 11.0284C28.1409 12.0159 29.3646 13.6814 29.3085 15.5556H29.308ZM6.57162 4.86732C7.86831 4.56364 9.00353 5.47246 9.23927 6.54444C9.55147 7.96454 8.64016 9.03293 7.5616 9.27228C4.59413 9.93099 3.6333 5.55583 6.57189 4.86732H6.57162ZM0.000144958 6.22199V33.7776C0.000144958 36.8798 3.11011 39.9999 6.2 39.9999H33.656C36.747 39.9999 39.8559 36.8787 39.8559 33.7776V6.22199C39.8559 4.5479 38.7897 2.79127 37.932 1.93049C37.0807 1.07605 35.3095 -0.000343323 33.656 -0.000343323H6.2C4.53196 -0.000343323 2.78167 1.06943 1.924 1.93049C1.07265 2.78492 0.000144958 4.56254 0.000144958 6.22199Z" fill="#141414"/>
<path fill-rule="evenodd" clip-rule="evenodd" d="M24.9107 20.367C23.3678 20.367 21.8249 20.3684 20.2823 20.3679C16.1601 20.3662 13.982 17.2422 15.3326 14.4992C16.6582 11.807 20.7034 11.1229 23.1733 12.9203C25.526 14.6325 24.9107 17.24 24.9107 20.3673V20.367ZM19.155 24.3386L29.3162 24.3579L29.3082 15.5557C29.3646 13.6815 28.1408 12.0162 27.3596 11.0284C26.6546 10.137 25.0303 9.03604 23.5158 8.48859C19.8474 7.16263 15.8844 8.07228 13.4608 10.1298C8.89156 14.0092 9.94261 20.0904 14.3185 22.7832C15.4512 23.4803 17.5065 24.415 19.1548 24.3386H19.155Z" fill="#DEEC50"/>
<path fill-rule="evenodd" clip-rule="evenodd" d="M10.1087 26.9452C11.2382 31.1702 15.7186 33.2545 19.9269 33.3313C22.3473 33.3754 24.7305 32.7294 26.3509 31.6028C27.3096 30.9364 27.7874 30.5369 28.4687 29.6399C28.9297 29.0331 29.5698 27.8792 29.747 26.935L25.1533 26.9339C24.964 26.9734 24.6867 27.4557 24.2183 27.9504C22.4609 29.8061 18.9133 29.8227 16.741 28.7107C15.6567 28.1558 15.295 27.8082 14.6799 26.9358L10.109 26.9452H10.1087Z" fill="#DEEC50"/>
<path fill-rule="evenodd" clip-rule="evenodd" d="M24.9107 20.367C24.9107 17.2397 25.526 14.6323 23.1733 12.9201C20.7034 11.1226 16.6582 11.8067 15.3326 14.4989C13.982 17.2419 16.1601 20.3659 20.2823 20.3676C21.8252 20.3681 23.368 20.3668 24.9107 20.3668V20.367Z" fill="#141414"/>
<path fill-rule="evenodd" clip-rule="evenodd" d="M6.57159 4.86739C3.63327 5.55563 4.59382 9.93106 7.5613 9.27236C8.64014 9.03301 9.55117 7.96462 9.23897 6.54451C9.00323 5.47254 7.86828 4.56372 6.57132 4.86739H6.57159Z" fill="#141414"/>
<path fill-rule="evenodd" clip-rule="evenodd" d="M19.155 24.3389C19.4034 24.473 28.6747 24.5531 29.3583 24.3982C29.5178 23.689 29.4818 15.8975 29.308 15.556L29.3159 24.3582L19.1548 24.3389H19.155Z" fill="#141414"/>
</svg>
