<svg width="36" height="36" viewBox="0 0 36 36" fill="none" xmlns="http://www.w3.org/2000/svg">
<path d="M3 14.625C2.385 14.625 1.875 14.115 1.875 13.5V9.75C1.875 5.4 5.415 1.875 9.75 1.875H13.5C14.115 1.875 14.625 2.385 14.625 3C14.625 3.615 14.115 4.125 13.5 4.125H9.75C6.645 4.125 4.125 6.645 4.125 9.75V13.5C4.125 14.115 3.615 14.625 3 14.625Z" fill="#141414"/>
<path d="M33 14.625C32.385 14.625 31.875 14.115 31.875 13.5V9.75C31.875 6.645 29.355 4.125 26.25 4.125H22.5C21.885 4.125 21.375 3.615 21.375 3C21.375 2.385 21.885 1.875 22.5 1.875H26.25C30.585 1.875 34.125 5.4 34.125 9.75V13.5C34.125 14.115 33.615 14.625 33 14.625Z" fill="#141414"/>
<path d="M26.25 34.125H24C23.385 34.125 22.875 33.615 22.875 33C22.875 32.385 23.385 31.875 24 31.875H26.25C29.355 31.875 31.875 29.355 31.875 26.25V24C31.875 23.385 32.385 22.875 33 22.875C33.615 22.875 34.125 23.385 34.125 24V26.25C34.125 30.6 30.585 34.125 26.25 34.125Z" fill="#141414"/>
<path d="M13.5 34.125H9.75C5.415 34.125 1.875 30.6 1.875 26.25V22.5C1.875 21.885 2.385 21.375 3 21.375C3.615 21.375 4.125 21.885 4.125 22.5V26.25C4.125 29.355 6.645 31.875 9.75 31.875H13.5C14.115 31.875 14.625 32.385 14.625 33C14.625 33.615 14.115 34.125 13.5 34.125Z" fill="#141414"/>
<path d="M13.5 16.875H10.5C8.385 16.875 7.125 15.615 7.125 13.5V10.5C7.125 8.385 8.385 7.125 10.5 7.125H13.5C15.615 7.125 16.875 8.385 16.875 10.5V13.5C16.875 15.615 15.615 16.875 13.5 16.875ZM10.5 9.375C9.615 9.375 9.375 9.615 9.375 10.5V13.5C9.375 14.385 9.615 14.625 10.5 14.625H13.5C14.385 14.625 14.625 14.385 14.625 13.5V10.5C14.625 9.615 14.385 9.375 13.5 9.375H10.5Z" fill="#141414"/>
<path d="M25.5 16.875H22.5C20.385 16.875 19.125 15.615 19.125 13.5V10.5C19.125 8.385 20.385 7.125 22.5 7.125H25.5C27.615 7.125 28.875 8.385 28.875 10.5V13.5C28.875 15.615 27.615 16.875 25.5 16.875ZM22.5 9.375C21.615 9.375 21.375 9.615 21.375 10.5V13.5C21.375 14.385 21.615 14.625 22.5 14.625H25.5C26.385 14.625 26.625 14.385 26.625 13.5V10.5C26.625 9.615 26.385 9.375 25.5 9.375H22.5Z" fill="#141414"/>
<path d="M13.5 28.875H10.5C8.385 28.875 7.125 27.615 7.125 25.5V22.5C7.125 20.385 8.385 19.125 10.5 19.125H13.5C15.615 19.125 16.875 20.385 16.875 22.5V25.5C16.875 27.615 15.615 28.875 13.5 28.875ZM10.5 21.375C9.615 21.375 9.375 21.615 9.375 22.5V25.5C9.375 26.385 9.615 26.625 10.5 26.625H13.5C14.385 26.625 14.625 26.385 14.625 25.5V22.5C14.625 21.615 14.385 21.375 13.5 21.375H10.5Z" fill="#141414"/>
<path d="M25.5 28.875H22.5C20.385 28.875 19.125 27.615 19.125 25.5V22.5C19.125 20.385 20.385 19.125 22.5 19.125H25.5C27.615 19.125 28.875 20.385 28.875 22.5V25.5C28.875 27.615 27.615 28.875 25.5 28.875ZM22.5 21.375C21.615 21.375 21.375 21.615 21.375 22.5V25.5C21.375 26.385 21.615 26.625 22.5 26.625H25.5C26.385 26.625 26.625 26.385 26.625 25.5V22.5C26.625 21.615 26.385 21.375 25.5 21.375H22.5Z" fill="#141414"/>
</svg>
