<svg width="24" height="24" viewBox="0 0 24 24" fill="none" xmlns="http://www.w3.org/2000/svg">
<path fill-rule="evenodd" clip-rule="evenodd" d="M4.33719 11.8524C8.41847 10.0743 11.14 8.90202 12.5017 8.33564C16.3896 6.71851 17.1975 6.4376 17.7241 6.42832C17.8399 6.42628 18.0988 6.45498 18.2666 6.59109C18.4082 6.70602 18.4472 6.86127 18.4658 6.97023C18.4845 7.07919 18.5077 7.32741 18.4892 7.52136C18.2785 9.73509 17.3669 15.1072 16.9031 17.5866C16.7068 18.6358 16.3204 18.9876 15.9463 19.022C15.1333 19.0968 14.516 18.4847 13.7285 17.9685C12.4963 17.1608 11.8002 16.658 10.6042 15.8698C9.22196 14.9589 10.118 14.4583 10.9057 13.6401C11.1119 13.426 14.694 10.1678 14.7633 9.87223C14.772 9.83527 14.7801 9.69747 14.6982 9.62471C14.6163 9.55196 14.4955 9.57684 14.4083 9.59662C14.2848 9.62467 12.3163 10.9257 8.50306 13.4998C7.94433 13.8835 7.43825 14.0704 6.98482 14.0606C6.48494 14.0498 5.52339 13.778 4.80857 13.5456C3.93182 13.2606 3.235 13.1099 3.29568 12.6259C3.32728 12.3738 3.67445 12.116 4.33719 11.8524Z" fill="#141414"/>
</svg>
