<svg width="24" height="24" viewBox="0 0 24 24" fill="none" xmlns="http://www.w3.org/2000/svg">
<path d="M18.9999 1.25012C19.1899 1.25012 19.3799 1.32012 19.5299 1.47012C19.8199 1.76012 19.8199 2.24012 19.5299 2.53012L5.52994 16.5301C5.23994 16.8201 4.75994 16.8201 4.46994 16.5301C4.17994 16.2401 4.17994 15.7601 4.46994 15.4701L18.4699 1.47012C18.6199 1.32012 18.8099 1.25012 18.9999 1.25012Z" fill="#141414"/>
<path d="M8.72988 1.25014L18.9999 1.25012C19.4099 1.25012 19.7499 1.59014 19.7499 2.00014V12.2701C19.7499 12.6801 19.4099 13.0201 18.9999 13.0201C18.5899 13.0201 18.2499 12.6801 18.2499 12.2701V2.75014H8.72988C8.31988 2.75014 7.97988 2.41014 7.97988 2.00014C7.97988 1.59014 8.31988 1.25014 8.72988 1.25014Z" fill="#141414"/>
<path d="M3.5 19.7476L20.5 19.7476C20.91 19.7476 21.25 20.0876 21.25 20.4976C21.25 20.9076 20.91 21.2476 20.5 21.2476L3.5 21.2476C3.09 21.2476 2.75 20.9076 2.75 20.4976C2.75 20.0876 3.09 19.7476 3.5 19.7476Z" fill="#141414"/>
</svg>
