<svg width="24" height="24" viewBox="0 0 24 24" fill="none" xmlns="http://www.w3.org/2000/svg">
<path d="M13.2139 17.7039C6.80446 17.7039 3.14993 13.3184 3 6.00937H6.22348C6.32656 11.3693 8.68794 13.637 10.5621 14.1056V6.00937H13.5888V10.6291C15.4348 10.4323 17.3838 8.3239 18.0398 6H21.0571C20.8111 7.20296 20.3196 8.34227 19.6134 9.34673C18.9073 10.3512 18.0015 11.1992 16.9528 11.8379C18.1231 12.4204 19.1567 13.2444 19.9853 14.2555C20.8139 15.2666 21.4187 16.4419 21.7599 17.7039H18.4333C17.7212 15.483 15.9408 13.7588 13.5888 13.5246V17.7039H13.2233H13.2139Z" fill="#141414"/>
</svg>
