<svg width="360" height="182" viewBox="0 0 360 182" fill="none" xmlns="http://www.w3.org/2000/svg">
<path fill-rule="evenodd" clip-rule="evenodd" d="M310.347 -6.19797C328.391 -2.14611 340.79 14.4334 358.49 19.7699C380.112 26.2884 412.945 9.30491 424.878 28.3315C437.636 48.6721 409.089 73.1668 406.946 97.0248C405.553 112.521 411.663 127.201 414.621 142.479C419.245 166.362 436.23 189.656 429.403 213.013C422.838 235.478 403.186 259.057 379.755 261.776C353.655 264.804 334.818 236.322 310.347 226.828C295.089 220.909 279.156 218.846 262.949 216.46C240.234 213.117 211.758 225.708 195.244 209.887C179.592 194.891 193.785 167.383 189.618 146.203C185.601 125.791 161.845 106.026 171.14 87.3833C181.462 66.6813 218.382 75.6932 233.523 58.1444C247.874 41.5107 233.549 9.62659 250.414 -4.49891C265.875 -17.4479 290.607 -10.6305 310.347 -6.19797Z" fill="black"/>
<path fill-rule="evenodd" clip-rule="evenodd" d="M13.491 -48.1692C35.9785 -37.6825 62.8307 -75.8527 85.0513 -64.8129C104.545 -55.128 93.8965 -22.5496 103.907 -3.24775C115.049 18.2352 154.534 31.33 146.793 54.2326C137.707 81.1113 91.944 72.2728 71.6647 92.1375C58.8481 104.692 70.6328 132.279 56.2124 142.961C41.8929 153.569 19.3537 134.867 3.35799 142.738C-21.7428 155.089 -29.5384 197.532 -57.5004 198.916C-81.0216 200.079 -87.1938 163.191 -105.28 148.114C-124.086 132.437 -156.388 130.936 -166.017 108.452C-175.62 86.0263 -159.718 60.8196 -152.654 37.4911C-146.724 17.9091 -137.663 0.134983 -127.791 -17.7882C-117.909 -35.7282 -107.138 -52.4205 -94.3247 -68.4048C-78.2298 -88.4833 -67.776 -129.021 -42.4383 -124.266C-11.0812 -118.38 -15.4231 -61.6529 13.491 -48.1692Z" fill="black"/>
<path fill-rule="evenodd" clip-rule="evenodd" d="M334.633 90.214C351.159 86.8717 363.599 67.9547 380.316 70.1817C395.804 72.2451 408.238 86.7898 414.679 100.878C421.01 114.725 416.654 130.797 414.933 145.899C413.581 157.768 408.357 168.429 405.655 180.07C402.957 191.694 406.302 205.324 398.947 214.774C391.596 224.218 374.995 221.335 366.761 230.037C352.409 245.206 355.305 279.079 334.633 282.747C316.095 286.037 308.974 256.416 296.429 242.518C287.838 232.999 281.859 221.695 272.05 213.409C259.572 202.869 233.588 203.45 231.174 187.394C228.654 170.639 254.277 162.703 262.164 147.668C267.73 137.055 264.136 123.521 270.123 113.136C276.442 102.175 285.135 91.2689 297.139 87.0038C309.095 82.7555 322.186 92.7313 334.633 90.214Z" fill="#141414"/>
</svg>
