<svg width="861" height="865" viewBox="0 0 861 865" fill="none" xmlns="http://www.w3.org/2000/svg">
<path d="M153.872 220.508C145.752 162.913 152.271 99.284 172.215 44.65C176.926 31.745 187.345 3.74055 202.498 1.07355C212.493 -0.68555 223.763 8.20975 231.083 14.0044C252.306 31.064 275.739 53.742 290.632 76.5779C331.899 59.8589 381.831 55.6789 424.134 70.8209C437.242 50.5649 476.81 9.32695 501.506 1.66785C504.504 0.73835 508.87 1.43475 511.352 3.35785C521.329 11.0875 526.684 43.7239 528.532 55.7149C533.902 90.562 532.597 126.629 529.272 161.494C545.153 187.108 552.094 209.688 553.664 239.708C575.032 269.822 580.447 304.613 563.886 338.396C572.188 344.791 580.581 347.543 590.995 348.734C580.305 356.295 574.89 365.494 565.621 374.655C574.187 376.013 580.789 377.506 587.73 382.9C577.204 383.122 569.947 382.086 559.518 380.439C554.195 388.154 549.465 394.724 543.717 402.105C550.427 405.116 557.468 408.09 562.889 413.191C554.375 412.163 546.355 410.563 538.116 408.188C510.214 436.072 484.271 451.728 445.805 461.69C446.139 468.852 446.643 472.076 444.302 479.088C454.217 498.796 471.161 537.419 485.85 551.495C492.715 558.075 501.019 562.53 510.003 565.498C520.018 568.807 530.374 570.343 540.02 574.821L559.49 469.468L564.702 441.515C566.934 429.417 567.971 416.068 579.158 408.631C583.597 405.68 588.246 404.027 593.632 403.724C605.981 403.214 618.657 403.223 631.031 403.005L711.346 401.659L793.356 400.392C803.736 400.279 815.559 399.227 825.695 400.554C835.129 401.788 843.386 412.93 842.233 422.293C841.365 430.841 839.422 439.786 837.841 448.277L828.906 496.507L816.04 567.749C815.092 573.008 813.458 580.61 812.861 585.729C808.793 620.597 797.88 619.723 767.192 621.125L725.14 623.051L730.835 651.408L810.239 658.343L834.423 660.385C853.8 662.036 860.385 662.449 860.169 684.779C859.995 702.797 859.973 712.797 838.677 714.946L838.681 789.667C838.683 797.153 838.648 806.268 838.687 813.4C838.781 831.098 840.181 838.017 819.686 840.225C816.169 840.604 809.96 841.682 806.157 842.24C790.12 844.739 773.619 847.789 757.525 849.713C683.107 858.61 607.85 861.928 532.956 863.675C525.85 863.841 489.116 865.025 484.492 863.85C478.572 864.474 467.231 864.156 461.158 864.093C457.124 864.979 444.832 864.904 440.453 864.888L407.774 864.616C361.165 864.23 314.59 862.965 268.047 860.446C221.304 857.917 174.248 854.17 128.045 846.5C115.165 844.362 91.8761 840.415 80.7551 834.544C78.3711 833.285 75.5641 831.234 75.0451 828.391C74.7511 826.782 75.3101 825.264 76.3251 824.034C84.1771 814.52 143.446 808.669 158.019 807.341L157.929 713.765C136.743 709.62 118.544 704.438 99.0921 694.525C42.0181 665.44 1.86981 604.537 0.774207 540.111C0.177707 505.028 9.6771 462.581 40.0891 441.517C71.0191 419.916 107.995 438.687 98.0841 477.503C94.9511 490.176 88.9601 501.895 84.5471 514.196C72.9631 545.548 75.4931 580.554 93.1601 609.22C109.787 636.198 131.87 647.743 159.572 659.993C158.953 643.88 158.066 622.029 156.629 606.208C149.141 604.646 142.904 602.384 138.37 595.765C136.195 592.59 135.335 588.527 134.785 584.763C133.408 575.344 129.48 504.91 130.965 498.08C132.607 490.527 137.892 483.079 144.474 479.066C148.024 476.901 152.316 475.616 156.402 474.957C165.464 473.495 175.406 473.858 184.587 473.55L232.039 471.776C239.321 471.49 249.566 471.408 256.52 470.757L260.532 466.573C259.66 460.512 259.36 454.241 260.395 448.174C225.815 433.182 192.834 415.51 170.512 384.001C162.611 380.581 156.799 377.684 150.145 371.968C106.695 334.646 108.458 255.486 153.872 220.508Z" fill="#3E3E3F"/>
<path d="M272.981 801.937C272.906 821.565 267.394 840.813 293.482 838.48C304.369 837.506 309.798 836.266 309.516 823.896C327.534 848.183 383.908 844.03 410.894 837.918C418.951 836.094 423.116 830.701 425.328 823.072C435.85 826.886 439.74 827.294 450.818 828.058C450.756 841.696 446.696 858.114 461.158 864.093C457.124 864.979 444.832 864.904 440.453 864.888L407.774 864.616C361.165 864.23 314.59 862.965 268.047 860.446C221.304 857.917 174.248 854.17 128.045 846.5C115.165 844.362 91.876 840.415 80.755 834.544C78.371 833.285 75.564 831.234 75.045 828.391C74.751 826.782 75.31 825.264 76.325 824.034C84.177 814.52 143.446 808.669 158.019 807.341L158.004 815.359C158.036 835.06 166.427 834.322 181.956 834.72C205.696 835.329 202.728 822.144 202.495 804.52C208.771 803.681 220.948 803.568 227.625 803.348L272.981 801.937Z" fill="#BCEB83"/>
<path d="M528.268 801.006C538.71 801.14 549.266 801.92 559.565 802.008C559.748 813.495 564.415 815.249 575.125 815.39C587.239 815.549 597.718 816.611 609.656 818.16L739.174 834.17L780.141 839.357C788.274 840.401 798.127 841.953 806.157 842.24C790.12 844.739 773.619 847.789 757.525 849.713C683.107 858.61 607.85 861.928 532.956 863.675C525.85 863.841 489.116 865.025 484.492 863.85C498.664 858.39 495.211 843.037 495.091 830.207C515.782 828.85 533.639 828.273 528.268 801.006Z" fill="#BCEB83"/>
<path d="M510.092 747.161C526.182 745.755 543.897 743.252 559.707 742.239L559.565 802.008C549.266 801.92 538.71 801.14 528.268 801.006C523.508 785.508 514.755 778.488 501.089 770.931C506.904 762.686 509.993 757.542 510.092 747.161Z" fill="#F8FFE3"/>
<path d="M202.482 775.073C227.487 780.846 247.67 784.822 272.98 788.991L272.981 801.937L227.625 803.348C220.948 803.568 208.771 803.681 202.495 804.52L202.482 775.073Z" fill="#F8FFE3"/>
<path d="M557.873 620.743C535.013 617.328 548.541 593.701 549.221 579.06C549.341 576.484 550.597 572.211 551.109 569.523L567.055 484.379L573.227 451.243C574.464 444.335 575.614 437.182 577.086 430.348C577.763 427.206 579.438 421.856 581.581 419.589C585.777 415.151 590.314 413.723 596.237 413.511C608.892 413.06 621.547 413.068 634.202 412.804L735.394 411.105L794.846 410.004C803.475 409.868 812.51 409.251 821.124 409.706C825.219 409.922 827.957 411.711 830.91 414.401C832.081 416.683 832.706 419.109 832.333 421.661C830.831 431.929 828.906 442.4 827.113 452.617L814.788 520.573L805.357 573.694C803.845 582.225 802.93 591.72 800.459 599.997C799.43 603.444 797.35 606.402 794.098 608.009C783.927 613.035 738.389 611.951 723.199 613.855L723.061 613.363C721.338 607.062 718.397 581.067 713.432 579.378C702.295 575.588 678.039 578.587 666.225 579.56C654.961 580.488 659.908 607.451 660.992 615.878C652.129 616.592 559.899 621.484 557.873 620.743Z" fill="#4B4A4B"/>
<path d="M557.873 620.743C535.013 617.328 548.541 593.701 549.221 579.06C549.341 576.484 550.597 572.211 551.109 569.523L567.055 484.379L573.227 451.243C574.464 444.335 575.614 437.182 577.086 430.348C577.763 427.206 579.438 421.856 581.581 419.589C585.777 415.151 590.314 413.723 596.237 413.511C608.892 413.06 621.547 413.068 634.202 412.804L735.394 411.105L794.846 410.004C803.475 409.868 812.51 409.251 821.124 409.706C825.219 409.922 827.957 411.711 830.91 414.401L661.059 418.508L623.883 419.255C618.028 419.36 601.114 419.294 596.622 420.655L597.3 421.512C596.879 423.441 596.738 423.128 596.209 424.619C590.268 441.387 587.355 462.405 584.143 479.838L566.072 577.104C563.806 588.708 561.714 600.332 558.261 611.653C557.537 614.027 556.889 616.07 556.637 618.567C557.754 619.83 557.55 619.253 557.873 620.743Z" fill="#90989C"/>
<path d="M596.622 420.655L597.3 421.512C596.879 423.441 596.738 423.128 596.209 424.619C590.268 441.387 587.355 462.405 584.143 479.838L566.072 577.104C563.806 588.708 561.714 600.332 558.261 611.653C557.537 614.027 556.889 616.07 556.637 618.567C555.345 615.793 555.317 613.459 555.726 610.452C563.675 552.072 575.583 494.213 586.437 436.32C587.948 428.263 588.06 424.044 596.622 420.655Z" fill="#3E3E3F"/>
<path d="M672.145 472.948C672.369 472.935 672.592 472.913 672.816 472.91C674.748 472.882 677.637 473.531 678.992 475.012C679.72 475.808 679.764 477.04 679.601 478.043C678.588 484.285 654.198 500.669 647.986 505.319C654.243 511.361 665.909 520.613 670.921 527.822C673.547 531.6 669.51 534.835 665.57 536.215C659.766 534.069 638.313 514.262 634.652 508.067C630.831 501.603 650.608 488.735 655.119 485.345C660.347 481.415 666.562 476.336 672.145 472.948Z" fill="#90989C"/>
<path d="M738.925 473.493C746.256 473.264 749.451 480.136 753.92 485.061C770.955 503.834 775.154 502.834 754.224 518.633L734.283 533.702C726.15 536.81 723.28 528.311 726.468 525.498C735.108 517.875 745.243 510.834 754.421 503.693C750.107 498.041 744.321 492.861 739.778 487.333C735.555 482.196 732.572 478.275 738.925 473.493Z" fill="#90989C"/>
<path d="M717.984 463.969C730.617 464.337 722.79 476.903 720.012 483.769L710.244 507.755L700.793 530.864C698.492 536.475 696.941 542.988 691.888 546.427C688.825 546.458 683.664 544.848 684.947 540.85C688.289 530.434 693.013 520.183 697.16 510.009L708.462 482.256C710.517 477.219 713.839 466.745 717.984 463.969Z" fill="#90989C"/>
<path d="M460.87 292.821C463.049 274.584 470.004 253.973 484.57 241.913C496.925 231.685 513.289 235.278 521.916 248.127C541.386 277.125 532.253 328.138 508.821 352.082C526.759 346.364 541.196 352.811 543.148 372.973C531.769 373.403 525.548 374.622 515.194 379.779C521.927 380.626 534.735 380.032 542.147 380.008C539.883 388.29 538.045 392.044 533.413 399.37C527.906 398.366 519.055 396.176 514.03 398.23L513.604 399.046C514.87 401.707 524.943 404.696 527.869 405.464C483.538 447.84 428.233 462.029 367.947 460.56C329.755 459.629 295.684 453.638 268.057 424.77C265.264 421.925 260.236 415.93 258.918 412.262C250.808 412.41 240.152 416.993 230.936 416.185C237.998 410.056 246.215 407.057 255.41 405.82C251.464 399.068 251.768 389.87 252.914 382.464C247.415 382.383 236.282 382.131 231.749 379.332L231.539 378.411C235.433 374.798 250.327 375.59 255.666 375.736C267.965 361.183 287.662 357.981 305.636 362.055C292.909 352.49 283.185 340.912 278.944 325.259C272.326 300.831 278.49 273.932 295.972 255.443C307.514 243.23 324.207 235.891 341.065 240.294C370.44 247.967 380.59 276.585 380.939 303.922C381.529 319.889 380.757 336.795 375.044 351.833C374.484 353.309 372.75 357.136 372.721 358.389C387.12 344.428 397.336 326.768 412.964 314.803C417.839 311.071 425.555 308.526 431.641 309.972C444.553 313.04 450.388 325.263 456.755 335.37C456.942 335.085 459.178 298.745 460.87 292.821Z" fill="#FDFDFD"/>
<path d="M372.721 358.389C369.378 362.129 366.484 365.247 361.959 367.64C354.63 371.533 342.227 371.546 334.499 368.85C306.942 359.236 302.361 320.967 311.093 296.989C315.164 285.808 321.961 275.163 332.626 269.959C351.651 260.676 372.357 273.767 377.598 292.864C378.402 295.764 379.674 301.457 380.939 303.922C381.529 319.889 380.757 336.795 375.044 351.833C374.484 353.309 372.75 357.136 372.721 358.389Z" fill="#BCEB83"/>
<path d="M351.849 292.545C380.16 290.606 384.76 356.603 353.943 367.669C322.57 372.072 323.663 301.058 351.849 292.545Z" fill="#4B4A4B"/>
<path d="M358.514 306.459C369.365 305.924 369.271 320.243 362.403 326.01C351.847 326.867 351.606 312.495 358.514 306.459Z" fill="#FDFDFD"/>
<path d="M460.87 292.821C461.891 291.65 465.059 284.782 465.35 283.777C469.195 270.48 490.331 254.79 502.014 267.008C522.764 288.708 513.414 359.611 477.309 362.112C461.734 363.191 460.468 344.456 456.755 335.37C456.942 335.085 459.178 298.745 460.87 292.821Z" fill="#BCEB83"/>
<path d="M480.149 287.574C507.428 285.338 505.612 350.176 480.005 359.381C453.421 364.846 460.451 313.805 467.153 301.501C471.145 294.171 471.838 290.935 480.149 287.574Z" fill="#4B4A4B"/>
<path d="M486.576 299.865C496.368 300.642 495.609 315.41 487.936 320.5C484.195 319.793 484.067 319.311 481.783 316.203C480.444 309.126 480.504 304.366 486.576 299.865Z" fill="#FDFDFD"/>
<path d="M255.666 375.736C271.526 377.64 284.227 379.337 298.95 386.644C288.334 386.908 264.415 383.954 252.914 382.464C247.415 382.383 236.282 382.131 231.749 379.332L231.539 378.411C235.433 374.798 250.327 375.59 255.666 375.736Z" fill="#4B4A4B"/>
<path d="M255.41 405.82C261.772 404.023 288.98 399.965 293.611 405.283C291.639 407.699 265.161 410.867 258.918 412.262C250.808 412.41 240.152 416.993 230.936 416.185C237.998 410.056 246.215 407.057 255.41 405.82Z" fill="#4B4A4B"/>
<path d="M432.289 361.198C439.287 360.724 456.242 359.351 459.895 365.75C465.585 375.716 448.801 385.984 442.514 389.649C441.544 393.193 440.761 395.756 439.475 399.175C438.398 402.04 435.783 407.249 435.207 409.946C440.858 416.255 454.319 410.777 457.838 404.584C458.988 402.56 463.725 399.751 466.014 402.05C466.274 403.977 465.631 405.877 464.583 407.478C455.933 420.692 442.902 425.38 429.221 416.754C418.675 421.957 417.898 423.92 405.153 424.015L404.636 423.991C391.793 423.302 367.645 413.89 367.957 397.751C367.986 396.254 368.509 394.974 369.69 394.011C373.133 393.631 374.788 396.463 376.214 399.197C383.918 413.97 406.545 420.826 421.084 412.116C429.82 406.883 432.278 399.303 434.885 389.692C428.936 384.166 418.876 381.479 417.425 372.044C415.983 362.67 425.412 361.9 432.289 361.198Z" fill="#4B4A4B"/>
<path d="M266.106 474.099C288.075 491.874 319.166 495.888 346.529 499.09C353.74 499.934 361.137 499.68 368.341 500.442L368.967 500.512C350.299 523.452 362.372 554.052 392.664 554.946C411.634 555.506 425.28 538.31 424.701 520.283C424.357 509.572 420.033 503.808 412.528 496.782C423.076 494.534 430.711 492.705 438.751 485.293C447.198 505.648 458.759 527.036 470.164 545.803C479.281 559.948 494.255 570.267 510.643 574.032C515.657 575.184 519.456 578.382 522.304 578.939C528.795 579.475 532.472 580.706 538.411 583.502C535.188 600.858 528.535 618.055 548.02 628.168C546.596 632.532 546.195 633.2 542.545 635.959L525.975 636.447C527.974 625.845 527.92 601.32 512.24 602.131L511.689 602.761C513.106 604.269 514.766 605.777 516.09 607.322C523.03 615.425 523.191 627.185 518.913 636.445C508.473 636.961 477.185 638.875 472.328 627.675C472.126 628.777 472.102 628.822 471.762 629.865C466.539 631.768 453.86 619.573 450.532 616.117C449.984 611.206 450.359 601.929 450.277 596.223C449.932 571.947 450.068 545.891 444.356 522.21C443.843 520.083 442.102 514.343 441.304 512.72L440.667 512.547C438.328 517.413 441.905 578.764 441.819 588.98C441.706 602.388 441.394 622.501 440.89 636.687C434.796 637.032 428.193 637.256 422.181 638.077C421.455 594.726 380.45 590.291 347.003 587.896C338.288 587.271 328.757 586.004 320.9 582.014C303.82 573.34 308.552 551.614 303.419 536.31C302.87 534.663 302.611 533.327 301.205 532.587C298.887 535.158 298.459 547.591 298.441 551.303C298.334 572.555 306.356 589.74 328.708 593.95C333.635 594.878 341.748 594.533 345.263 598.096C341.055 599.143 337.694 600.161 333.817 602.188C316.519 611.23 300.694 637.821 314.901 655.798C310.559 659.728 279.999 645.684 275.202 642.9C247.501 626.822 235.714 601.715 231.495 570.992C231.237 569.111 230.551 562.525 229.08 561.718C224.39 567.599 227.338 590.29 229.125 597.208C235.25 620.919 252.292 639.951 273.096 652.182C243.206 654.798 210.494 656.993 180.562 658.658C180.513 617.446 208.583 549.132 231.721 515.238C241.545 500.846 253.909 486.428 266.106 474.099Z" fill="#4B4A4B"/>
<path d="M522.304 578.939C528.795 579.475 532.472 580.706 538.411 583.502C535.188 600.858 528.535 618.055 548.02 628.168C546.596 632.532 546.195 633.2 542.545 635.959L525.975 636.447C527.974 625.845 527.92 601.32 512.24 602.131L511.689 602.761C513.106 604.269 514.766 605.777 516.09 607.322C523.03 615.425 523.191 627.185 518.913 636.445C508.473 636.961 477.185 638.875 472.328 627.675C463.539 600.814 488.386 580.94 513.145 579.149C516.207 578.928 519.235 578.941 522.304 578.939Z" fill="#FDFDFD"/>
<path d="M287.767 660.21C292.436 659.826 295.14 660.835 299.505 662.235C307.829 664.905 315.518 666.756 324.25 667.458C324.773 669.804 325.532 672.075 327.444 673.655C331.057 676.641 392.841 685.852 400.447 685.71C408.064 685.568 415.756 684.505 423.337 683.741L461.577 679.927L588.293 667.654C587.439 681.257 595.942 681.621 607.241 682.279C623.813 683.244 643.318 687.539 659.685 686.552C688.696 684.804 717.511 683.381 746.443 680.934C754.375 680.263 756.812 676.662 758.689 669.42C757.772 665.727 757.302 664.59 755.116 661.471L809.689 666.619C818.601 667.423 839.841 668.266 848.958 671.802C849.968 672.194 851.273 676.053 851.242 677.313C851.071 684.072 851.529 691.278 850.89 698.001C850.611 700.864 847.603 704.777 844.654 705.3C833.326 707.308 821.603 708.056 810.127 709.189L738.88 716.098C680.262 721.122 620.524 727.67 561.916 733.402L513.262 738.247C504.334 739.136 494.552 740.28 485.627 740.677C481.292 740.87 472.792 739.559 468.094 738.961L444.38 736.094L351.365 725.13L222.495 709.836L181.609 705.118C174.319 704.281 164.957 703.495 157.973 702.056C151.25 696.319 152.626 688.74 152.759 680.644C152.845 675.442 154.668 672.64 158.502 669.431C163.739 668.415 170.491 668.206 175.933 667.856L200.038 666.223L287.767 660.21Z" fill="#B88751"/>
<path d="M160.892 672.159C168.859 672.066 181.192 673.697 189.44 674.598L229.595 678.822L403.512 697.897L447.36 702.796C463 704.66 478.57 707.043 494.332 705.789C500.681 705.284 507.018 704.776 513.364 704.236L556.218 700.554L732.456 685.23L799.877 679.254C806.073 678.719 838.538 675.059 841.977 677.023L841.894 677.842L840.307 678.647C828.474 681.227 805.869 682.584 792.72 683.779L707.89 691.53L559.318 705.089L514.083 709.125C507.601 709.694 492.592 711.352 486.497 711.092C472.409 710.49 455.653 708.144 441.447 706.548L354.628 696.709L226.413 682.556C211.644 680.927 196.893 679.318 182.103 677.886C177.885 677.477 162.926 676.312 160.645 673.205L160.892 672.159Z" fill="#4B4A4B"/>
<path d="M477.979 716.64C481.678 718.959 481.251 735.224 479.012 738.649C475.523 734.852 476.435 721.414 477.979 716.64Z" fill="#4B4A4B"/>
<path d="M594.036 738.878L800.544 718.368L800.645 739.376C800.678 770.593 801.015 802.975 800.563 834.145L691.475 820.49C659.355 816.437 625.616 811.713 593.519 808.34C593.588 794.021 593.286 777.871 593.796 763.71C594.021 755.577 593.965 747.043 594.036 738.878Z" fill="#B88751"/>
<path d="M594.036 738.878L800.544 718.368L800.645 739.376L666.503 754.704C644.09 757.28 615.704 759.638 593.796 763.71C594.021 755.577 593.965 747.043 594.036 738.878Z" fill="#9B7047"/>
<path d="M66.3079 441.705C74.6179 440.823 82.2189 444.128 86.8229 451.277C95.4129 464.377 88.2139 482.742 82.4239 495.679C68.0849 527.643 63.5279 559.724 75.9839 593.278C89.8679 630.682 115.394 649.129 149.926 665.138C142.52 674.498 142.156 691.309 146.333 702.088C139.467 700.532 131.424 698.209 124.762 696.003C105.719 688.125 93.6349 682.301 77.0019 669.76C41.4389 642.971 17.1319 601.986 11.1773 557.87C5.65441 516.953 16.2319 448.308 66.3079 441.705Z" fill="#4B4A4B"/>
<path d="M166.035 230.65C190.468 225.905 209.814 254.958 212.273 276.094C212.411 276.595 212.587 277.213 212.664 277.729C216.07 300.615 213.98 328.894 200.055 348.272C194.567 356.105 184.643 365.55 174.555 366.622C145.773 369.681 130.819 336.41 127.651 313.053C124.499 289.807 127.913 265.526 141.619 246.36C147.455 238.199 156.206 232.107 166.035 230.65Z" fill="#BCEB83"/>
<path d="M166.035 230.65C190.468 225.905 209.814 254.958 212.273 276.094L211.955 276.598C211.299 276.312 209.289 269.406 208.451 267.484C202.375 253.797 192.546 240.131 178.608 233.711C174.664 231.895 169.149 232.124 166.035 230.65Z" fill="url(#paint0_linear_0_1)"/>
<path d="M241.604 480.718L248.101 480.495C217.117 514.356 199.631 552.672 184.803 595.476C178.672 596.201 170.626 596.469 164.293 596.901C161.945 566.013 160.046 534.744 159.941 503.73C159.93 500.487 167.77 489.569 167.057 487.324L166.003 487.357C162.787 489.388 160.971 492.315 159.022 495.478C154.695 503.505 156.52 525.817 156.983 535.551C157.942 555.677 158.924 576.735 161.074 596.777C155.481 596.515 146.324 594.995 144.825 588.154C142.784 578.84 142.808 567.84 142.307 558.184L139.839 512.968C139.178 500.982 139.991 487.999 154.832 484.68C163.923 482.647 175.423 483.185 184.925 482.777C203.799 481.966 222.719 481.639 241.604 480.718Z" fill="url(#paint1_linear_0_1)"/>
<path d="M200.515 10.2814C204.515 8.88011 207.485 9.19021 211.28 11.0314C225.39 17.8777 263.512 53.562 270.509 65.853C273.509 68.172 279.252 77.23 281.63 80.766C274.494 84.543 263.648 90.919 257.495 95.938C249.471 82.39 234.918 68.452 223.735 57.329C205.452 39.144 201.261 59.381 197.389 74.917C189.238 107.62 182.215 147.042 187.526 180.751C183.163 190.351 179.886 199.643 176.628 209.644C172.076 211.104 166.473 212.998 162.192 215.012C162.04 209.826 161.062 204.107 160.729 198.769C157.217 142.503 164.501 82.935 187.436 31.078C190.623 23.8699 194.955 15.8331 200.515 10.2814Z" fill="#4B4A4B"/>
<path d="M200.515 10.2814C204.515 8.88011 207.485 9.19021 211.28 11.0314C225.39 17.8777 263.512 53.562 270.509 65.853C269.634 65.798 259.2 53.802 257.343 51.955C243.17 37.85 228.053 24.2712 210.943 13.811C207.039 11.4245 204.38 11.8291 200.515 10.2814Z" fill="#FDFDFD"/>
<path d="M202.536 715.945C215.66 718.424 238.016 720.073 252 721.674L346.503 732.961C363.347 735.019 380.187 736.417 396.892 739.318C396.822 751.837 395.599 760.927 389.233 771.845C387.389 775.006 384.559 778.638 383.485 781.959C360.538 781.779 339.699 787.536 322.328 803.506C318.304 807.206 318.202 811.648 316.042 814.335C315.828 813.509 315.955 813.896 314.947 813.199L314.835 813.463L315.431 814.328C313.039 812.428 312.647 803.827 312.174 800.519C310.721 790.557 310.324 780.482 308.074 770.657C303.28 749.725 291.42 752.344 274.978 749.855C250.826 746.2 223.571 743.335 202.624 730.307L202.536 715.945Z" fill="#4B4A4B"/>
<path d="M355.345 69.211C360.668 68.785 368.594 68.911 373.935 69.133C406.603 70.488 438.486 82.49 464.765 101.777C470.18 105.752 477.18 111.254 481.661 116.182C414.006 70.8401 319.79 81.521 261.811 138.009C237.14 162.825 226.828 182.453 215.545 215.066C205.555 209.895 197.259 208.616 186.224 208.547C196.473 179.62 207.853 156.804 228.434 133.588C262.507 95.155 303.956 72.557 355.345 69.211Z" fill="#BCEB83"/>
<path d="M345.263 598.096C358.688 595.309 385.922 600.42 397.847 607.557C411.769 615.888 423.245 643.878 403.381 652.25C405.488 643.105 406.443 634.758 401.355 626.169C399.282 622.669 391.795 614.14 387.428 615.729C387.378 618.806 401.39 631.319 398.191 644.192C394.83 657.716 389.595 654.046 376.367 655.087C376.856 649.629 376.882 646.787 375.712 641.358C373.913 633.01 364.69 623.976 355.63 624.967L355.12 625.51C357.528 628.463 361.541 630.121 364.121 632.667C370.67 639.129 371.579 647.08 369.145 655.409C356.364 656.183 343.534 656.632 330.806 658.002C325.186 658.606 319.38 660.052 314.901 655.798C300.694 637.821 316.519 611.23 333.817 602.188C337.694 600.161 341.055 599.143 345.263 598.096Z" fill="#FDFDFD"/>
<path d="M185.481 217.191C192.642 216.721 199.24 216.989 205.702 220.499C221.69 229.182 234.292 249.018 239.609 265.848C247.852 292.375 245.651 321.834 232.97 346.572C219.584 372.686 192.526 386.684 165.091 371.972C171.493 372.198 175.391 372.401 181.563 370.26C194.992 365.601 205.33 353.826 211.32 341.251C222.251 318.306 223.362 287.19 215.088 263.299C210.195 249.169 200.073 235.103 186.214 228.826C175.105 223.794 166.683 224.758 155.679 228.774C165.32 221.966 173.868 218.588 185.481 217.191Z" fill="#BCEB83"/>
<path d="M432.557 74.006C443.186 57.018 483 17.1791 502.457 10.0071C504.097 10.0551 506.013 9.89387 507.12 11.4527C515.514 23.2678 519.687 54.235 521.511 67.912C524.908 73.829 523.126 141.304 521.709 151.022C519.584 148.028 515.422 143.707 512.841 140.864C514.657 114.356 513.588 86.309 508.752 60.154C508.242 56.221 503.656 40.425 497.286 44.444C483.977 52.84 471.475 77.906 464.993 91.298C452.462 83.812 446.13 79.777 432.557 74.006Z" fill="#4B4A4B"/>
<path d="M502.457 10.0071C504.097 10.0551 506.013 9.89387 507.12 11.4527C515.514 23.2678 519.687 54.235 521.511 67.912C519.837 65.128 519.29 57.965 518.5 54.445C515.759 42.229 512.484 17.5783 502.457 10.0071Z" fill="#FDFDFD"/>
<path d="M316.042 814.335C318.202 811.648 318.304 807.206 322.328 803.506C339.699 787.536 360.538 781.779 383.485 781.959C394.156 784.106 406.022 792.261 411.927 801.349C418.219 811.032 422.502 825.072 408.316 829.966C409.836 815.686 407.531 802.903 392.239 797.189C399.477 809.757 405.518 815.219 401.283 831.264C394.811 832.263 388.511 832.882 382.001 833.552C382.218 820.012 379.463 808.408 366.711 801.194C373.475 813.834 377.545 819.046 375.842 833.782C362.262 834.379 315.791 833.403 316.042 814.335Z" fill="#FDFDFD"/>
<path d="M694.494 586.22C699.07 585.955 704.076 586.052 708.69 586.05C710.812 593.676 712.066 601.93 713.727 609.713C717.409 626.959 720.464 644.465 724.159 661.688C715.261 662.415 706.287 663.222 697.378 663.661C691.144 664.28 680.459 664.413 674.174 664.257C672.573 649.787 671.314 634.799 669.967 620.277C669.021 610.085 667.668 597.368 667.57 587.266C676.161 586.656 685.708 586.694 694.494 586.22Z" fill="#4B4A4B"/>
<path d="M166.551 711.406C174.057 712.347 186.301 714.235 193.568 714.671L193.528 737.282L193.633 789.578C193.674 799.334 194.156 809.264 193.601 818.996C193.521 820.392 193.498 822.727 192.571 823.767C189.872 826.795 180.146 825.593 176.111 825.66C173.69 825.7 169.421 825.847 167.842 823.561C165.556 820.251 166.573 740.524 166.561 731.414L166.551 711.406Z" fill="#B88751"/>
<path d="M166.551 711.406C174.057 712.347 186.301 714.235 193.568 714.671L193.528 737.282C188.579 736.062 171.513 729.389 166.561 731.414L166.551 711.406Z" fill="#9B7047"/>
<path d="M805.47 718.081C813.355 717.081 822.896 716.653 830.356 715.515L830.429 796.106C830.433 800.791 830.876 825.239 830.056 828.532C827.663 831.786 810.791 833.152 805.382 834.165L805.434 738.639L805.47 718.081Z" fill="#B88751"/>
<path d="M805.47 718.081C813.355 717.081 822.896 716.653 830.356 715.515L830.429 796.106C830.433 800.791 830.876 825.239 830.056 828.532C829.799 797.76 830.344 766.812 829.931 736.069C824.132 737.02 811.213 738.345 805.434 738.639L805.47 718.081Z" fill="#9B7047"/>
<path d="M459.427 746.288C467.564 747.457 478.251 749.117 486.422 749.61C486.444 759.846 486.95 774.88 486.401 784.659L486.47 825.825C486.483 831.374 487.329 849.776 484.777 853.683C480.831 855.924 473.506 855.027 468.898 855.157C464.13 855.291 459.548 855.827 459.483 849.555C459.391 840.627 459.458 831.609 459.458 822.635L459.451 765.975L459.427 746.288Z" fill="#B88751"/>
<path d="M459.427 746.288C467.564 747.457 478.251 749.117 486.422 749.61C486.444 759.846 486.95 774.88 486.401 784.659C486.053 781.489 486.159 773.905 485.965 770.177C477.179 767.138 468.531 767.099 459.451 765.975L459.427 746.288Z" fill="#9B7047"/>
<path d="M211.689 59.207C223.525 66.145 242.36 89.98 250.586 101.317C235.688 112.282 220.923 128.404 209.833 143.068C203.876 150.913 199.459 158.203 194.35 166.625C192.569 138.191 200.423 85.336 211.689 59.207Z" fill="#FDFDFD"/>
<path d="M609.751 646.711C617.347 646.128 620.191 649.393 615.216 655.902C611.331 657.662 575.859 660.719 569.383 661.338C516.711 666.378 463.581 672.102 410.883 676.572C408.837 676.897 405.846 676.962 403.708 677.073C403.508 673.233 402.863 668.404 402.462 664.486L609.751 646.711Z" fill="#4B4A4B"/>
<path d="M269.11 451.701C311.159 465.931 339.87 469.735 383.508 469.477L383.392 491.956C353.327 493.035 296.906 489.062 271.897 467.599C267.779 464.065 268.508 456.764 269.11 451.701Z" fill="#BCEB83"/>
<path d="M202.552 741.898C212.381 746.283 220.691 748.858 231.097 751.223C250.043 755.531 268.961 758.202 288.209 760.502C297.102 761.564 299.05 768.63 300.171 776.228C300.416 777.893 300.803 778.514 299.845 779.816C283.285 781.56 274.039 780.115 257.915 777.139C239.327 773.707 221.005 769.694 202.498 765.894L202.552 741.898Z" fill="#9B7047"/>
<path d="M389.493 498.721C402.715 497.213 414.671 506.668 416.25 519.882C417.829 533.095 408.438 545.102 395.234 546.752C381.928 548.415 369.809 538.936 368.218 525.622C366.627 512.308 376.17 500.24 389.493 498.721Z" fill="#BCEB83"/>
<path d="M586.245 739.714C587.737 739.494 587.805 739.347 589.194 739.815C589.747 743.753 589.441 757.632 589.414 762.206L589.112 807.711C583.095 807.565 577.386 807.374 571.376 807.016C569.082 806.789 569.431 807.152 567.774 806C567.156 802.889 567.431 789.531 567.438 785.648L567.526 741.708C572.206 740.801 581.194 740.187 586.245 739.714Z" fill="#9B7047"/>
<path d="M497.767 54.819C504.32 60.254 505.186 118.426 504.741 128.844C501.196 123.859 497.21 119.45 493.11 114.941C485.977 107.622 479.841 102.618 471.886 96.354C477.428 83.538 488.271 64.584 497.767 54.819Z" fill="#FDFDFD"/>
<path d="M659.269 625.728C660.05 625.633 660.43 625.751 661.233 625.845C662.653 628.037 663.64 644.615 664.076 648.571C651.399 647.853 636.846 646.117 624.069 644.871C619.209 637.871 615.17 637.092 606.771 636.39C600.195 635.84 593.55 635.358 586.963 634.867C582.501 634.193 572.224 634.537 569.193 632.429C569.044 630.753 570.345 629.88 571.898 629.816C581.2 629.436 590.497 628.978 599.796 628.527L659.269 625.728Z" fill="#F8FFE3"/>
<path d="M743.316 667.209C745.057 667.024 746.401 666.689 748.02 667.274C749.414 668.437 749.336 668.332 749.925 670.05C749.79 670.637 749.822 671.205 749.311 671.597C746.288 673.913 660.308 678.666 652.627 678.418C645.521 678.188 638.315 677.146 631.243 676.407C622.17 675.458 613.027 674.674 604 673.366C599.917 673.047 598.007 672.545 594.35 670.95C610.896 667.814 637.192 669.058 654.534 668.365C658.874 668.192 668.482 671.849 675.033 672.118C698.554 673.085 720.182 669.949 743.316 667.209Z" fill="#4B4A4B"/>
<path d="M301.148 788.798L301.751 789.204C302.23 794.891 302.91 824.559 300.492 828.88C297.37 830.594 287.293 830.027 283.474 829.704C282.731 828.969 281.698 828 281.638 826.921C280.975 814.93 281.325 801.889 281.273 789.881C287.839 790.11 294.612 789.455 301.148 788.798Z" fill="#9B7047"/>
<path d="M442.685 785.33L450.561 781.537C450.93 794.236 450.452 807.07 450.844 819.64C441.236 818.696 434.172 817.853 425.251 813.482C424.436 809.611 424.04 807.881 422.64 804.222C428.17 795.268 433.619 790.809 442.685 785.33Z" fill="#FDFDFD"/>
<path d="M495.193 777.44C506.79 781.454 516.546 790.864 520.1 802.702C522.456 810.55 522.188 817.163 513.255 819.386C513.348 809.858 512.77 804.484 506.489 796.896C504.847 795.42 501.628 792.836 499.379 793.165C498.719 795.127 500.819 798.188 501.945 799.848C506.826 807.037 507.026 812.334 506.313 820.694C502.55 821.082 498.857 821.527 495.102 821.997C495.088 807.222 494.942 792.192 495.193 777.44Z" fill="#FDFDFD"/>
<path d="M326.873 177.736C343.559 176.957 352.404 184.923 360.152 198.533C351.591 195.125 343.943 191.46 334.625 191.247C323.381 191.062 310.594 194.18 300.339 198.775L300.077 197.787C303.629 188.064 316.889 179.568 326.873 177.736Z" fill="#4B4A4B"/>
<path d="M554.112 253.865C554.629 254.379 554.796 254.435 555.073 254.985C566.45 277.535 568.917 300.304 561.654 324.123C561.034 325.992 560.224 327.693 559.421 329.487C554.72 305.452 553.693 278.292 554.112 253.865Z" fill="#BCEB83"/>
<path d="M435.352 464.183L436.504 464.081L437.157 464.733C440.175 481.241 422.505 486.384 410.115 489.046L409.171 489.022C407.799 487.217 407.623 471.34 407.488 467.739C417.011 467.252 425.954 465.712 435.352 464.183Z" fill="#BCEB83"/>
<path d="M368.261 663.711C381.067 663.151 384.401 663.169 396.859 665.263C397.181 669.209 397.385 673.121 397.6 677.072C388.079 676.39 375.4 674.111 365.563 672.79C360.986 672.063 333.948 668.517 332.292 666.52L332.47 665.986C333.984 665.535 341.098 665.482 343.317 665.351L368.261 663.711Z" fill="#4B4A4B"/>
<path d="M180.989 605.229L181.225 605.512C181.227 605.544 176.677 624.296 176.251 625.633C172.793 636.473 173.863 648.685 171.921 659.012C170.51 659.824 171.306 659.555 169.309 659.325L168.602 658.422C167.877 641.231 166.47 623.317 165.45 606.049C170.593 605.699 175.833 605.488 180.989 605.229Z" fill="#9B7047"/>
<path d="M492.373 178.248C503.696 177.871 511.905 185.32 516.584 194.908C507.293 189.86 501.386 188.008 490.907 188.847C481.232 190.796 477.184 194.35 469.65 200.625C474.183 188.455 478.061 180.314 492.373 178.248Z" fill="#4B4A4B"/>
<path d="M624.797 652.928C635.44 653.488 653.228 655.236 664.063 656.909C664.898 657.037 664.793 657.359 665.209 658.277C664.935 659.542 664.901 659.453 664.009 660.421L661.903 660.407C653.23 659.458 630.396 660.327 621.505 660.882C623.231 658.035 624.071 656.16 624.797 652.928Z" fill="#B88751"/>
<path d="M391.499 468.144L399.8 467.837C400.027 471.356 401.465 490.345 400.857 492.838C397.52 492.743 394.084 492.737 390.737 492.69L391.499 468.144Z" fill="#BCEB83"/>
<path d="M442.685 785.33C442.625 773.656 446.417 759.924 446.081 747.987C446.042 746.621 446.57 746.028 447.481 745.225C449.497 745.253 448.812 744.873 450.159 745.785C450.887 749.178 450.497 776.059 450.561 781.537L442.685 785.33Z" fill="#4B4A4B"/>
<path d="M554.966 640.637C558.793 640.326 580.923 641.269 583.719 642.675L583.173 642.333C581.765 643.774 541.032 645.472 536.875 645.544C532.593 645.834 511.857 646.371 508.571 645.68C511.331 645.063 517.223 645.068 520.261 644.902C534.151 644.143 541.521 645.14 554.966 640.637Z" fill="#4B4A4B"/>
<path d="M495.616 748.777L502.088 748.474C501.813 753.757 500.926 757.026 498.027 761.455L495.194 765.892C495.121 762.714 494.62 750.908 495.616 748.777Z" fill="#4B4A4B"/>
<path d="M409.61 777.144C410.232 777.167 409.851 777.087 410.625 777.724C411.093 780.519 410.898 784.448 410.86 787.397C409.396 786.058 407.78 784.815 406.226 783.574C404.262 782.108 401.731 780.558 399.643 779.202C402.478 778.445 406.641 777.737 409.61 777.144Z" fill="#F8FFE3"/>
<path d="M449.516 626.786C452.477 629.383 456.18 632 459.376 634.396L458.955 634.889L449.001 636.016C449.216 632.946 449.357 629.86 449.516 626.786Z" fill="#F8FFE3"/>
<path d="M402.197 761.627C404.222 762.641 408.741 765.636 407.54 768.288L404.962 768.852L398.424 769.911C399.861 767.216 400.995 764.434 402.197 761.627Z" fill="#9B7047"/>
<path d="M144.147 265.595C147.019 266.233 149.814 264.417 150.39 261.538C150.966 258.659 149.104 255.808 146.232 255.17C143.361 254.532 140.566 256.348 139.99 259.227C139.414 262.106 141.276 264.957 144.147 265.595Z" fill="#141414"/>
<path d="M178.637 315.533C176.037 318.703 171.441 319.992 166.043 318.792C160.645 317.593 156.498 314.311 154.791 310.234L144.311 307.905C145.049 317.048 152.69 325.14 164.563 327.778C175.767 330.268 185.591 326.216 189.581 317.966L178.643 315.535L178.637 315.533Z" fill="#141414"/>
<path d="M188.606 310.063L168.418 305.576C157.287 303.103 149.798 293.249 151.726 283.612C153.653 273.975 164.278 268.147 175.409 270.621C186.541 273.094 194.029 282.948 192.102 292.585L188.606 310.063ZM174.166 276.836C166.994 275.243 160.147 278.999 158.905 285.208C157.663 291.417 162.489 297.767 169.661 299.361L182.67 302.251L184.922 290.989C186.164 284.778 181.338 278.43 174.166 276.836Z" fill="#141414" stroke="#141414" stroke-width="5"/>
<path d="M379.552 511.886C380.905 511.886 381.978 510.792 381.949 509.443C381.92 508.094 380.801 507 379.449 507C378.096 507 377.023 508.094 377.052 509.443C377.081 510.792 378.2 511.886 379.552 511.886Z" fill="#141414"/>
<path d="M400.008 530.855C399.158 532.536 397.224 533.573 394.682 533.573C392.14 533.573 389.952 532.514 388.78 530.855H383.845C385.088 534.883 389.323 537.752 394.914 537.752C400.19 537.752 404.193 534.955 405.161 530.855H400.011H400.008Z" fill="#141414"/>
<path d="M403.936 527.406H394.43C389.188 527.406 384.846 523.731 384.749 519.215C384.653 514.698 388.84 511.024 394.081 511.024C399.323 511.024 403.665 514.698 403.761 519.215L403.936 527.406ZM394.143 513.937C390.766 513.937 388.068 516.305 388.13 519.215C388.192 522.125 390.991 524.493 394.368 524.493H400.493L400.381 519.215C400.319 516.304 397.52 513.937 394.143 513.937Z" fill="#141414"/>
<path d="M402.801 519.215C402.719 515.357 398.952 511.984 394.102 511.984C389.251 511.984 385.628 515.357 385.71 519.215C385.792 523.072 389.559 526.446 394.409 526.446H402.955L402.801 519.215ZM399.421 519.215C399.373 516.963 397.149 514.897 394.163 514.897C391.178 514.897 389.042 516.964 389.09 519.215C389.138 521.465 391.362 523.533 394.347 523.533H399.512L399.421 519.215ZM401.474 525.453H394.388C390.62 525.453 387.246 522.784 387.17 519.215C387.094 515.646 390.354 512.977 394.123 512.977C397.891 512.977 401.265 515.645 401.341 519.215L401.474 525.453ZM404.916 528.366H394.45C388.817 528.366 383.899 524.39 383.789 519.215C383.679 514.039 388.428 510.064 394.061 510.064C399.694 510.064 404.611 514.039 404.722 519.215L404.916 528.366Z" fill="#141414"/>
<defs>
<linearGradient id="paint0_linear_0_1" x1="189.159" y1="253.104" x2="197.115" y2="244.978" gradientUnits="userSpaceOnUse">
<stop stop-color="#E3ECD4"/>
<stop offset="1" stop-color="#FCFAF1"/>
</linearGradient>
<linearGradient id="paint1_linear_0_1" x1="135.957" y1="527.171" x2="235.255" y2="544.085" gradientUnits="userSpaceOnUse">
<stop stop-color="#A8784A"/>
<stop offset="1" stop-color="#C49256"/>
</linearGradient>
</defs>
</svg>
