<svg width="20" height="20" viewBox="0 0 20 20" fill="none" xmlns="http://www.w3.org/2000/svg">
<g opacity="0.4">
<path d="M10.083 18.9583H6.58301C3.32467 18.9583 2.70801 18.3416 2.70801 15.0833V9.91663C2.70801 6.65829 3.32467 6.04163 6.58301 6.04163H10.083C13.3413 6.04163 13.958 6.65829 13.958 9.91663V15.0833C13.958 18.3416 13.3413 18.9583 10.083 18.9583ZM6.58301 7.29163C3.99967 7.29163 3.95801 7.33329 3.95801 9.91663V15.0833C3.95801 17.6666 3.99967 17.7083 6.58301 17.7083H10.083C12.6663 17.7083 12.708 17.6666 12.708 15.0833V9.91663C12.708 7.33329 12.6663 7.29163 10.083 7.29163H6.58301Z" fill="#141414"/>
<path d="M13.4163 13.9583H13.333C12.9913 13.9583 12.708 13.675 12.708 13.3333V9.91663C12.708 7.33329 12.6663 7.29163 10.083 7.29163H6.66634C6.32467 7.29163 6.66634 7.08329 6.04134 7.08329V4.91663C6.04134 1.65829 6.65801 1.04163 9.91634 1.04163H13.4163C16.6747 1.04163 17.2913 1.65829 17.2913 4.91663V10.0833C17.2913 13.3416 16.6747 13.9583 13.4163 13.9583ZM13.958 12.7083H13.4163C15.9997 12.7083 16.0413 12.6666 16.0413 10.0833V4.91663C16.0413 2.33329 15.9997 2.29163 13.4163 2.29163H9.91634C7.33301 2.29163 7.29134 2.33329 7.29134 4.91663V6.04163H10.083C13.3413 6.04163 13.958 6.65829 13.958 9.91663V12.7083Z" fill="#141414"/>
</g>
</svg>
