<svg width="20" height="20" viewBox="0 0 20 20" fill="none" xmlns="http://www.w3.org/2000/svg">
<path d="M4.16686 15.2083C4.00853 15.2083 3.8502 15.15 3.7252 15.025C3.48353 14.7833 3.48353 14.3833 3.7252 14.1416L15.3919 2.47495C15.6335 2.23328 16.0335 2.23328 16.2752 2.47495C16.5169 2.71662 16.5169 3.11662 16.2752 3.35828L4.60853 15.025C4.48353 15.15 4.3252 15.2083 4.16686 15.2083Z" fill="#141414"/>
<path d="M12.7248 15.2082H4.1665C3.82484 15.2082 3.5415 14.9249 3.5415 14.5832V6.0249C3.5415 5.68324 3.82484 5.3999 4.1665 5.3999C4.50817 5.3999 4.7915 5.68324 4.7915 6.0249V13.9582H12.7248C13.0665 13.9582 13.3498 14.2416 13.3498 14.5832C13.3498 14.9249 13.0665 15.2082 12.7248 15.2082Z" fill="#141414"/>
<path d="M17.0832 18.9583H2.9165C2.57484 18.9583 2.2915 18.6749 2.2915 18.3333C2.2915 17.9916 2.57484 17.7083 2.9165 17.7083H17.0832C17.4248 17.7083 17.7082 17.9916 17.7082 18.3333C17.7082 18.6749 17.4248 18.9583 17.0832 18.9583Z" fill="#141414"/>
</svg>
