<svg width="80" height="81" viewBox="0 0 80 81" fill="none" xmlns="http://www.w3.org/2000/svg">
<rect y="0.5" width="80" height="80" rx="24" fill="#D62828" fill-opacity="0.1"/>
<path d="M40 62C28.14 62 18.5 52.36 18.5 40.5C18.5 28.64 28.14 19 40 19C51.86 19 61.5 28.64 61.5 40.5C61.5 52.36 51.86 62 40 62ZM40 22C29.8 22 21.5 30.3 21.5 40.5C21.5 50.7 29.8 59 40 59C50.2 59 58.5 50.7 58.5 40.5C58.5 30.3 50.2 22 40 22Z" fill="#D62828"/>
<path d="M34.3397 47.66C33.9597 47.66 33.5797 47.52 33.2797 47.22C32.6997 46.64 32.6997 45.68 33.2797 45.1L44.5997 33.78C45.1797 33.2 46.1397 33.2 46.7197 33.78C47.2997 34.36 47.2997 35.32 46.7197 35.9L35.3997 47.22C35.1197 47.52 34.7197 47.66 34.3397 47.66Z" fill="#D62828"/>
<path d="M45.6597 47.66C45.2797 47.66 44.8997 47.52 44.5997 47.22L33.2797 35.9C32.6997 35.32 32.6997 34.36 33.2797 33.78C33.8597 33.2 34.8197 33.2 35.3997 33.78L46.7197 45.1C47.2997 45.68 47.2997 46.64 46.7197 47.22C46.4197 47.52 46.0397 47.66 45.6597 47.66Z" fill="#D62828"/>
</svg>
