<svg width="20" height="20" viewBox="0 0 20 20" fill="none" xmlns="http://www.w3.org/2000/svg">
<path d="M15.8335 1.04175C15.9919 1.04175 16.1502 1.10008 16.2752 1.22508C16.5169 1.46675 16.5169 1.86675 16.2752 2.10842L4.60853 13.7751C4.36686 14.0167 3.96686 14.0167 3.7252 13.7751C3.48353 13.5334 3.48353 13.1334 3.7252 12.8917L15.3919 1.22508C15.5169 1.10008 15.6752 1.04175 15.8335 1.04175Z" fill="white"/>
<path d="M7.27515 1.04177L15.8335 1.04175C16.1752 1.04175 16.4585 1.3251 16.4585 1.66677V10.2251C16.4585 10.5668 16.1751 10.8501 15.8335 10.8501C15.4918 10.8501 15.2085 10.5668 15.2085 10.2251V2.29177H7.27515C6.93348 2.29177 6.65015 2.00843 6.65015 1.66677C6.65015 1.3251 6.93348 1.04177 7.27515 1.04177Z" fill="white"/>
<path d="M2.91683 16.4563H17.0835C17.4252 16.4563 17.7085 16.7396 17.7085 17.0813C17.7085 17.423 17.4252 17.7063 17.0835 17.7063L2.91683 17.7063C2.57516 17.7063 2.29183 17.423 2.29183 17.0813C2.29183 16.7396 2.57516 16.4563 2.91683 16.4563Z" fill="white"/>
</svg>
